<?xml version="1.0" encoding="UTF-8"?>
<svg width="128px" height="128px" viewBox="0 0 128 128" version="1.1" xmlns="http://www.w3.org/2000/svg" xmlns:xlink="http://www.w3.org/1999/xlink">
    
    <defs>
        <linearGradient x1="11.0726644%" y1="23.3931975%" x2="88.9273356%" y2="72.0241831%" id="linearGradient-1zlk">
            <stop stop-color="#1D1D1D" offset="0%"></stop>
            <stop stop-color="#3D3D3D" offset="100%"></stop>
        </linearGradient>
    </defs>
    <g id="Logo-" stroke="none" stroke-width="1" fill="none" fill-rule="evenodd">
        <g id="Logo_03_token" transform="translate(-51.000000, -137.000000)">
            <g id="ZLK" transform="translate(51.000000, 137.000000)">
                <g id="Rectangle" fill="#EDEFF2">
                    <rect x="0" y="0" width="128" height="128"></rect>
                </g>
                <path d="M78.5521587,89.5563913 L64.8162075,97.4951962 C64.0254153,97.9514877 63.0521327,97.9514877 62.2621738,97.4951962 L35.846883,82.2281994 C35.0735899,81.7810838 34.5969481,80.9544204 34.5969481,80.0610233 L34.5969481,49.4961653 C34.5969481,48.6019341 35.0735899,47.7752707 35.846883,47.328155 L50.1194729,39.0798726 C50.4794542,38.8713299 50.9294308,39.1315912 50.9294308,39.5478425 L50.9294308,71.6884494 C50.9294308,72.2840475 51.2469142,72.8346003 51.7627207,73.1332335 L78.5521587,88.6162806 C78.9138066,88.8248233 78.9138066,89.3478485 78.5521587,89.5563913 M101.083485,39.1958224 L66.9160981,19.4493276 C65.1111921,18.4057797 62.8879746,18.4057797 61.0830686,19.4493276 L26.9165148,39.1958224 C25.1116088,40.2393703 24,42.1663052 24,44.2525667 L24,83.7472247 C24,85.8334863 25.1116088,87.7612554 26.9165148,88.8039691 L61.0830686,108.551298 C62.8879746,109.594012 65.1111921,109.594012 66.9160981,108.551298 L101.083485,88.8039691 C102.887558,87.7612554 104,85.8334863 104,83.7472247 L104,44.2525667 C104,42.1663052 102.887558,40.2393703 101.083485,39.1958224" fill="#3D3D3D"></path>
            </g>
        </g>
    </g>
</svg>