<svg version="1.1" id="Layer_1" xmlns="http://www.w3.org/2000/svg" xmlns:xlink="http://www.w3.org/1999/xlink" x="0px" y="0px"
	 width="100%" viewBox="0 0 72 72" enable-background="new 0 0 72 72" xml:space="preserve">
<path fill="#000000" opacity="1.000000" stroke="none" 
	d="
M53.000957,73.000000 
	C35.334114,73.000000 18.167469,73.000000 1.000619,73.000000 
	C1.000413,49.000309 1.000413,25.000616 1.000206,1.000693 
	C24.999659,1.000462 48.999317,1.000462 72.999237,1.000231 
	C72.999489,24.999626 72.999489,48.999252 72.999741,72.999435 
	C66.500389,73.000000 60.000774,73.000000 53.000957,73.000000 
M29.456772,31.047686 
	C27.735060,38.820652 25.940329,46.578609 24.337484,54.376011 
	C23.874945,56.626148 22.658276,59.752129 26.191145,60.354599 
	C27.209513,60.528263 29.131292,57.918579 29.945419,56.247196 
	C31.591309,52.868229 33.065754,50.168159 37.632984,49.847637 
	C43.406807,49.442432 48.358624,47.096481 51.883297,41.782284 
	C56.947945,34.146255 55.287415,26.253664 51.256123,20.873720 
	C45.208694,12.803145 35.203327,11.414219 27.335722,15.909284 
	C20.734531,19.680794 16.714346,29.513662 19.166147,36.927467 
	C19.569487,38.147099 21.414116,38.890087 22.592638,39.853359 
	C23.394669,38.627487 24.647274,37.485641 24.895138,36.156433 
	C25.285507,34.063030 24.914751,31.839540 25.017921,29.678364 
	C25.258537,24.637964 31.950148,18.268021 36.781136,19.176506 
	C41.387226,20.042704 45.790802,21.960730 47.925110,26.835730 
	C49.993065,31.559172 49.103676,35.887356 45.823639,39.572445 
	C42.466812,43.343807 38.232246,45.029049 33.083504,43.516407 
	C33.478703,41.017941 33.845413,38.773304 34.186234,36.524746 
	C34.545540,34.154266 34.880123,31.780043 35.410618,28.135887 
	C32.845848,29.165648 31.392569,29.749140 29.456772,31.047686 
M38.768681,59.921028 
	C40.166344,59.176228 41.800587,58.655254 42.832550,57.564472 
	C43.190746,57.185867 42.355740,54.865295 41.522182,54.394955 
	C40.641968,53.898281 38.164387,54.294960 38.042183,54.748249 
	C37.642685,56.230118 37.997982,57.915478 38.768681,59.921028 
z"/>
<path fill="#F20082" opacity="1.000000" stroke="none" 
	d="
M29.698032,30.690159 
	C31.392569,29.749140 32.845848,29.165648 35.410618,28.135887 
	C34.880123,31.780043 34.545540,34.154266 34.186234,36.524746 
	C33.845413,38.773304 33.478703,41.017941 33.083504,43.516407 
	C38.232246,45.029049 42.466812,43.343807 45.823639,39.572445 
	C49.103676,35.887356 49.993065,31.559172 47.925110,26.835730 
	C45.790802,21.960730 41.387226,20.042704 36.781136,19.176506 
	C31.950148,18.268021 25.258537,24.637964 25.017921,29.678364 
	C24.914751,31.839540 25.285507,34.063030 24.895138,36.156433 
	C24.647274,37.485641 23.394669,38.627487 22.592640,39.853359 
	C21.414116,38.890087 19.569487,38.147099 19.166147,36.927467 
	C16.714346,29.513662 20.734531,19.680794 27.335722,15.909284 
	C35.203327,11.414219 45.208694,12.803145 51.256123,20.873720 
	C55.287415,26.253664 56.947945,34.146255 51.883297,41.782284 
	C48.358624,47.096481 43.406807,49.442432 37.632984,49.847637 
	C33.065754,50.168159 31.591309,52.868229 29.945419,56.247196 
	C29.131292,57.918579 27.209513,60.528263 26.191145,60.354599 
	C22.658276,59.752129 23.874945,56.626148 24.337484,54.376011 
	C25.940329,46.578609 27.735060,38.820652 29.698032,30.690159 
z"/>
<path fill="#F30082" opacity="1.000000" stroke="none" 
	d="
M38.415848,59.721802 
	C37.997982,57.915478 37.642685,56.230118 38.042183,54.748249 
	C38.164387,54.294960 40.641968,53.898281 41.522182,54.394955 
	C42.355740,54.865295 43.190746,57.185867 42.832550,57.564472 
	C41.800587,58.655254 40.166344,59.176228 38.415848,59.721802 
z"/>
</svg>