<svg width="1440" height="520" viewBox="0 0 1440 520" fill="none" xmlns="http://www.w3.org/2000/svg">
<g clip-path="url(#clip0_74_66)">
<rect width="1440" height="520" fill="#1D1F22"/>
<path d="M-2.00002 519C66.9563 519 133.088 491.66 181.848 442.994C230.607 394.329 258 328.324 258 259.5C258 190.676 230.607 124.671 181.848 76.0058C133.088 27.3401 66.9563 2.04131e-06 -1.99997 -1.1365e-05L-2.00001 181.65C18.6869 181.65 38.5265 189.852 53.1543 204.452C67.7822 219.051 76 238.853 76 259.5C76 280.147 67.7822 299.949 53.1543 314.548C38.5265 329.148 18.6869 337.35 -2.00001 337.35L-2.00002 519Z" fill="#AAA4FF" fill-opacity="0.4"/>
<path fill-rule="evenodd" clip-rule="evenodd" d="M355.53 76.127C404.484 124.881 432 191.021 432 260C432 328.979 404.484 395.119 355.53 443.873L332.53 420.867L355.53 443.873C306.577 492.625 240.198 520 171 520L171 455C222.972 455 272.802 434.438 309.53 397.861C346.256 361.285 366.875 311.694 366.875 260C366.875 208.306 346.256 158.715 309.53 122.139C272.802 85.5619 222.972 65 171 65L171 -1.14087e-05C240.199 3.06018e-06 306.577 27.3755 355.53 76.127Z" fill="#AAA4FF" fill-opacity="0.35"/>
<path fill-rule="evenodd" clip-rule="evenodd" d="M525.185 76.1355C574.043 124.891 601.5 191.028 601.5 260C601.5 328.972 574.043 395.109 525.185 443.864C476.328 492.619 410.074 520 341 520L341 475C398.169 475 452.988 452.337 493.398 412.011C533.807 371.687 556.5 317.006 556.5 260C556.5 202.994 533.807 148.313 493.398 107.989C452.988 67.6632 398.169 45 341 45L341 -1.13868e-05C410.074 1.16923e-06 476.328 27.3813 525.185 76.1355Z" fill="#AAA4FF" fill-opacity="0.2"/>
<path fill-rule="evenodd" clip-rule="evenodd" d="M694.338 76.1426C743.101 124.9 770.5 191.035 770.5 260C770.5 328.965 743.101 395.1 694.338 443.857C645.577 492.614 579.448 520 510.5 520L510.5 494C572.583 494 632.118 469.34 676.009 425.453C719.9 381.568 744.552 322.052 744.552 260C744.552 197.948 719.9 138.432 676.009 94.5467C632.118 50.6601 572.583 26 510.5 26L510.5 -1.1365e-05C579.448 1.56704e-06 645.577 27.3862 694.338 76.1426Z" fill="#AAA4FF" fill-opacity="0.1"/>
<path fill-rule="evenodd" clip-rule="evenodd" d="M863.347 76.1514C912.107 124.911 939.5 191.043 939.5 260C939.5 328.957 912.107 395.089 863.347 443.849C814.587 492.608 748.456 520 679.5 520L679.5 517.82C747.88 517.82 813.459 490.656 861.81 442.305C910.161 393.954 937.324 328.377 937.324 260C937.324 191.623 910.161 126.046 861.81 77.6948C813.459 29.3439 747.88 2.1803 679.5 2.18028L679.5 -1.1365e-05C748.456 2.04563e-06 814.587 27.3922 863.347 76.1514Z" fill="#AAA4FF" fill-opacity="0.05"/>
<g style="mix-blend-mode:overlay">
<path d="M863.649 3.98853L616 3.98851L616 208.597M863.649 413.205L616 413.205L616 208.597M863.649 208.597L616 208.597" stroke="white" stroke-width="6.79867" stroke-miterlimit="10"/>
<path d="M911.324 55.6372L663.676 55.6372L663.676 260.245M911.324 464.853L663.676 464.853L663.676 260.245M911.324 260.245L663.676 260.245" stroke="#ABFF8D" stroke-width="6.79867" stroke-miterlimit="10"/>
<path d="M959 107.286L711.351 107.286L711.351 311.894M959 516.502L711.351 516.502L711.351 311.894M959 311.894L711.351 311.894" stroke="#B0A4FF" stroke-width="6.79867" stroke-miterlimit="10"/>
</g>
<path d="M1439.8 64.1931L1375.6 0L1311.41 64.1931L1375.6 128.386L1439.8 64.1931Z" fill="#B0A4FF"/>
<path d="M1375.6 128.413L1311.4 64.2202L1247.21 128.413L1311.4 192.606L1375.6 128.413Z" fill="#201615"/>
<path d="M1311.4 192.57L1247.21 128.376L1183.01 192.57L1247.21 256.763L1311.4 192.57Z" fill="#201615"/>
<path d="M1247.19 0.0220014L1183 64.2151L1247.19 128.408L1311.39 64.2151L1247.19 0.0220014Z" fill="#ABFF8D"/>
<path d="M1311.42 64.2097L1247.23 128.403L1311.42 192.596L1375.61 128.403L1311.42 64.2097Z" fill="white"/>
<path d="M1375.59 128.398L1311.4 192.591L1375.59 256.784L1439.78 192.591L1375.59 128.398Z" fill="#201615"/>
<path d="M1439.79 192.58L1375.59 128.387L1311.4 192.58L1375.59 256.773L1439.79 192.58Z" fill="#ABFF8D"/>
<path d="M1311.39 323.953L1247.2 259.76L1183 323.953L1247.2 388.146L1311.39 323.953Z" stroke="white" stroke-width="6.79867" stroke-miterlimit="10"/>
<path d="M1311.83 452.36L1247.64 388.167L1183.44 452.36L1247.64 516.553L1311.83 452.36Z" stroke="white" stroke-width="6.79867" stroke-miterlimit="10"/>
<path d="M1247.2 128.408L1183.01 192.602L1247.2 256.795L1311.4 192.602L1247.2 128.408Z" fill="#B0A4FF"/>
<path d="M1311.84 323.971L1247.65 388.164L1311.84 452.357L1376.04 388.164L1311.84 323.971Z" stroke="white" stroke-width="6.79867" stroke-miterlimit="10"/>
<path d="M1375.6 259.782L1311.41 323.975L1375.6 388.168L1439.8 323.975L1375.6 259.782Z" stroke="white" stroke-width="6.79867" stroke-miterlimit="10"/>
<path d="M1376.04 388.188L1311.85 452.381L1376.04 516.574L1440.24 452.381L1376.04 388.188Z" stroke="white" stroke-width="6.79867" stroke-miterlimit="10"/>
<path d="M926.438 452.381L990.631 516.574L1054.82 452.381L990.631 388.188L926.438 452.381Z" fill="#B0A4FF"/>
<path d="M990.641 388.16L1054.83 452.354L1119.03 388.16L1054.83 323.967L990.641 388.16Z" fill="#201615"/>
<path d="M1054.84 324.004L1119.03 388.197L1183.22 324.004L1119.03 259.811L1054.84 324.004Z" fill="#201615"/>
<path d="M1119.04 516.552L1183.24 452.359L1119.04 388.166L1054.85 452.359L1119.04 516.552Z" fill="#ABFF8D"/>
<path d="M1054.82 452.364L1119.01 388.171L1054.82 323.978L990.622 388.171L1054.82 452.364Z" fill="white"/>
<path d="M990.645 388.176L1054.84 323.983L990.645 259.79L926.452 323.983L990.645 388.176Z" fill="#201615"/>
<path d="M926.449 323.994L990.642 388.187L1054.83 323.994L990.642 259.801L926.449 323.994Z" fill="#ABFF8D"/>
<path d="M1054.85 192.621L1119.04 256.814L1183.23 192.621L1119.04 128.428L1054.85 192.621Z" stroke="white" stroke-width="6.79867" stroke-miterlimit="10"/>
<path d="M1054.41 64.2139L1118.6 128.407L1182.79 64.2139L1118.6 0.0208094L1054.41 64.2139Z" stroke="white" stroke-width="6.79867" stroke-miterlimit="10"/>
<path d="M1119.03 388.165L1183.23 323.972L1119.03 259.779L1054.84 323.972L1119.03 388.165Z" fill="#B0A4FF"/>
<path d="M1054.39 192.603L1118.59 128.409L1054.39 64.2163L990.199 128.409L1054.39 192.603Z" stroke="white" stroke-width="6.79867" stroke-miterlimit="10"/>
<path d="M990.634 256.792L1054.83 192.599L990.634 128.406L926.441 192.599L990.634 256.792Z" stroke="white" stroke-width="6.79867" stroke-miterlimit="10"/>
<path d="M990.193 128.386L1054.39 64.1926L990.193 -0.000464979L926 64.1926L990.193 128.386Z" stroke="white" stroke-width="6.79867" stroke-miterlimit="10"/>
</g>
<defs>
<clipPath id="clip0_74_66">
<rect width="1440" height="520" fill="white"/>
</clipPath>
</defs>
</svg>
