<svg width="128" height="128" viewBox="0 0 128 128" fill="none" xmlns="http://www.w3.org/2000/svg">
<rect width="128" height="128" rx="32" fill="#1D1F22"/>
<path d="M61.5507 54.0739C61.5507 54.0739 61.5507 54.0739 61.5507 53.9006L61.4207 53.5758C61.3755 53.5068 61.3248 53.4417 61.2691 53.3809C61.2112 53.2892 61.146 53.2023 61.0742 53.121L60.8793 52.9694L60.5328 52.7961L44.2903 42.7691C43.9462 42.554 43.5484 42.4399 43.1425 42.4399C42.7367 42.4399 42.3389 42.554 41.9947 42.7691L25.8822 52.7961L25.6873 52.9694L25.4924 53.121C25.4206 53.2023 25.3554 53.2892 25.2975 53.3809C25.2418 53.4417 25.1911 53.5068 25.1459 53.5758L25.016 53.9006C25.016 53.9006 25.016 53.9006 25.016 54.0739C24.9947 54.261 24.9947 54.4499 25.016 54.6369V73.5648C25.0152 73.9329 25.1083 74.295 25.2864 74.6171C25.4645 74.9392 25.7217 75.2106 26.0338 75.4056L42.2763 85.4326C42.3763 85.4944 42.4862 85.5383 42.6011 85.5626C42.6011 85.5626 42.7094 85.5626 42.7744 85.5626C43.1408 85.6788 43.5341 85.6788 43.9005 85.5626C43.9005 85.5626 44.0088 85.5626 44.0738 85.5626C44.1888 85.5383 44.2987 85.4944 44.3986 85.4326L60.5328 75.4056C60.8449 75.2106 61.1021 74.9392 61.2802 74.6171C61.4583 74.295 61.5514 73.9329 61.5507 73.5648V54.6369C61.5719 54.4499 61.5719 54.261 61.5507 54.0739ZM41.0419 79.7153L29.1307 72.3521V58.5351L41.0419 65.8767V79.7153ZM43.2075 62.1301L31.0798 54.6369L43.2075 47.1654L55.3352 54.6369L43.2075 62.1301ZM57.2843 72.3521L45.3732 79.7153V65.8767L57.2843 58.5351V72.3521Z" fill="#B0A4FF"/>
<path d="M103.099 29.6339C103.099 29.6339 103.099 29.6339 103.099 29.4607L102.969 29.1358C102.924 29.0669 102.873 29.0017 102.817 28.9409C102.759 28.8492 102.694 28.7623 102.623 28.681L102.428 28.5294L102.081 28.3562L85.8387 18.3292C85.4945 18.1141 85.0967 18 84.6909 18C84.285 18 83.8872 18.1141 83.5431 18.3292L67.4305 28.3562L67.2356 28.5294L67.0407 28.681C66.9689 28.7623 66.9038 28.8492 66.8458 28.9409C66.7901 29.0017 66.7394 29.0669 66.6942 29.1358L66.5643 29.4607C66.5643 29.4607 66.5643 29.4607 66.5643 29.6339C66.543 29.821 66.543 30.0099 66.5643 30.197V49.1249C66.5635 49.4929 66.6566 49.8551 66.8347 50.1772C67.0128 50.4992 67.27 50.7706 67.5821 50.9657L83.8246 60.9927C83.9246 61.0544 84.0345 61.0984 84.1494 61.1226C84.1494 61.1226 84.2577 61.1226 84.3227 61.1226C84.6891 61.2389 85.0824 61.2389 85.4488 61.1226C85.4488 61.1226 85.5571 61.1226 85.6221 61.1226C85.7371 61.0984 85.847 61.0544 85.9469 60.9927L102.081 50.9657C102.393 50.7706 102.65 50.4992 102.829 50.1772C103.007 49.8551 103.1 49.4929 103.099 49.1249V30.197C103.12 30.0099 103.12 29.821 103.099 29.6339ZM82.5902 55.2754L70.679 47.9121V34.0952L82.5902 41.4368V55.2754ZM84.7558 37.6902L72.6281 30.197L84.7558 22.7255L96.8835 30.197L84.7558 37.6902ZM98.8326 47.9121L86.9215 55.2754V41.4368L98.8326 34.0952V47.9121Z" fill="white"/>
<path d="M103.099 77.6999C103.099 77.6999 103.099 77.6999 103.099 77.5266L102.969 77.2018C102.924 77.1328 102.873 77.0676 102.817 77.0068C102.759 76.9152 102.694 76.8283 102.623 76.747L102.428 76.5954L102.081 76.4221L85.8387 66.3951C85.4945 66.18 85.0967 66.0659 84.6909 66.0659C84.285 66.0659 83.8872 66.18 83.5431 66.3951L67.4305 76.4221L67.2356 76.5954L67.0407 76.747C66.9689 76.8283 66.9038 76.9152 66.8458 77.0068C66.7901 77.0676 66.7394 77.1328 66.6942 77.2018L66.5643 77.5266C66.5643 77.5266 66.5643 77.5266 66.5643 77.6999C66.543 77.8869 66.543 78.0758 66.5643 78.2629V97.1908C66.5635 97.5588 66.6566 97.921 66.8347 98.2431C67.0128 98.5652 67.27 98.8366 67.5821 99.0316L83.8246 109.059C83.9246 109.12 84.0345 109.164 84.1494 109.189C84.1494 109.189 84.2577 109.189 84.3227 109.189C84.6891 109.305 85.0824 109.305 85.4488 109.189C85.4488 109.189 85.5571 109.189 85.6221 109.189C85.7371 109.164 85.847 109.12 85.9469 109.059L102.081 99.0316C102.393 98.8366 102.65 98.5652 102.829 98.2431C103.007 97.921 103.1 97.5588 103.099 97.1908V78.2629C103.12 78.0758 103.12 77.8869 103.099 77.6999ZM82.5902 103.341L70.679 95.978V82.1611L82.5902 89.5027V103.341ZM84.7558 85.7561L72.6281 78.2629L84.7558 70.7914L96.8835 78.2629L84.7558 85.7561ZM98.8326 95.978L86.9215 103.341V89.5027L98.8326 82.1611V95.978Z" fill="#ABFF8D"/>
</svg>
