<svg width="128" height="128" viewBox="0 0 128 128" fill="none" xmlns="http://www.w3.org/2000/svg">
<rect width="128" height="128" rx="32" fill="#1D1F22"/>
<path d="M87.4775 53.6846H78.5647C77.7809 53.6846 77.0196 53.9968 76.4597 54.5544C75.8999 55.1119 75.5863 55.859 75.5863 56.6508C75.5863 57.4425 75.8999 58.1896 76.4597 58.7472C77.0196 59.3047 77.7697 59.6169 78.5647 59.6169H87.4775C88.2613 59.6169 89.0227 59.9292 89.5826 60.4867C90.1424 61.0443 90.4559 61.7914 90.4559 62.5831V86.268C90.4559 87.0486 90.1424 87.8069 89.5826 88.3644C89.0227 88.922 88.2725 89.2342 87.4775 89.2342H39.9128C39.129 89.2342 38.3676 88.922 37.8078 88.3644C37.2479 87.8069 36.9344 87.0598 36.9344 86.268V62.5831C36.9344 61.8026 37.2479 61.0443 37.8078 60.4867C38.3676 59.9292 39.1178 59.6169 39.9128 59.6169H48.8256C49.6094 59.6169 50.3708 59.3047 50.9306 58.7472C51.4905 58.1896 51.804 57.4425 51.804 56.6508C51.804 55.859 51.4905 55.1119 50.9306 54.5544C50.3708 53.9968 49.6206 53.6846 48.8256 53.6846H39.9128C37.5502 53.6846 35.2772 54.6213 33.6089 56.2828C31.9405 57.9443 31 60.208 31 62.5608V86.2457C31 88.5986 31.9405 90.8623 33.6089 92.5238C35.2772 94.1853 37.5502 95.122 39.9128 95.122H87.4775C89.8401 95.122 92.1131 94.1853 93.7814 92.5238C95.4498 90.8623 96.3903 88.5986 96.3903 86.2457V62.5608C96.3903 60.208 95.4498 57.9443 93.7814 56.2828C92.1131 54.6213 89.8401 53.6846 87.4775 53.6846ZM63.6952 65.527C61.926 65.527 60.2017 66.0511 58.7461 67.0213C57.2793 68.0026 56.1372 69.3853 55.4654 71.0022C54.7936 72.6303 54.6144 74.4144 54.9615 76.1317C55.3086 77.849 56.1596 79.4324 57.4025 80.6813C58.6453 81.9191 60.2353 82.7666 61.9708 83.1123C62.5419 83.2238 63.1241 83.2795 63.7064 83.2795C64.8708 83.2795 66.0353 83.0565 67.1214 82.5993C68.7562 81.9303 70.1446 80.7928 71.1188 79.3321C72.1041 77.8713 72.6191 76.154 72.6191 74.4033C72.6191 72.0504 71.6786 69.7867 70.0103 68.1252C68.3419 66.4637 66.0689 65.527 63.7064 65.527H63.6952ZM63.6952 77.3695C63.1017 77.3695 62.5307 77.191 62.0492 76.8677C61.5565 76.5443 61.1758 76.0759 60.9519 75.5407C60.728 74.9943 60.672 74.4033 60.7839 73.8346C60.8959 73.2547 61.187 72.7306 61.6013 72.318C62.0156 71.9054 62.5419 71.6267 63.1241 71.504C63.3145 71.4705 63.5048 71.4482 63.7064 71.4482C64.0983 71.4482 64.4789 71.5263 64.8484 71.6713C65.3971 71.8943 65.8562 72.2734 66.1809 72.7641C66.5056 73.2547 66.6847 73.8234 66.6847 74.4144C66.6847 75.195 66.3712 75.9533 65.8114 76.5108C65.2515 77.0684 64.5013 77.3806 63.7064 77.3806L63.6952 77.3695ZM81.5319 71.4482C81.3416 71.4482 81.14 71.4705 80.9497 71.504C80.3786 71.6155 79.8412 71.9054 79.4269 72.318C79.0126 72.7306 78.7327 73.2547 78.6095 73.8346C78.4976 74.4033 78.5535 75.0054 78.7775 75.5407C79.0014 76.0871 79.3821 76.5443 79.8748 76.8677C80.3675 77.191 80.9385 77.3695 81.5207 77.3695C82.3045 77.3695 83.0659 77.0572 83.6258 76.4997C84.1856 75.9421 84.4991 75.195 84.4991 74.4033C84.4991 73.8123 84.32 73.2436 83.9953 72.7529C83.6706 72.2623 83.2003 71.8831 82.6628 71.6601C82.3045 71.5151 81.9126 71.4371 81.5207 71.4371L81.5319 71.4482ZM45.8584 71.4482C45.0746 71.4482 44.3132 71.7605 43.7534 72.318C43.1935 72.8756 42.88 73.6227 42.88 74.4144C42.88 75.0054 43.0591 75.5741 43.3839 76.0536C43.7086 76.5443 44.1788 76.9234 44.7163 77.1464C45.0746 77.2914 45.4665 77.3695 45.8584 77.3695C46.0487 77.3695 46.2503 77.3472 46.4406 77.3137C47.0117 77.2022 47.5491 76.9123 47.9634 76.4997C48.3777 76.0871 48.6576 75.563 48.7808 74.9831C48.8928 74.4033 48.8368 73.8123 48.6128 73.277C48.3889 72.7306 48.0082 72.2734 47.5155 71.95C47.0229 71.6267 46.4518 71.4482 45.8696 71.4482H45.8584Z" fill="#B0A4FF"/>
<path d="M61.7035 58.8262C61.9834 59.0938 62.3194 59.3057 62.6889 59.4506C63.0472 59.6068 63.4278 59.6848 63.8197 59.6848C64.2116 59.6848 64.5923 59.6068 64.9506 59.4506C65.3201 59.3057 65.6448 59.0938 65.936 58.8262L72.7437 52.169C73.3148 51.6003 73.6395 50.8197 73.6395 50.0057C73.6395 49.1916 73.3148 48.4222 72.7437 47.8424C72.1727 47.2625 71.3889 46.9503 70.5715 46.9503C69.7541 46.9503 68.9815 47.2737 68.3993 47.8424L66.7981 49.5931V33.955C66.7981 33.1744 66.4846 32.4161 65.9248 31.8586C65.3649 31.301 64.6147 30.9888 63.8197 30.9888C63.0248 30.9888 62.2746 31.301 61.7147 31.8586C61.1549 32.4161 60.8413 33.1632 60.8413 33.955V49.5819L59.2402 47.8312C58.6691 47.2625 57.8853 46.9391 57.068 46.9391C56.2506 46.9391 55.478 47.2625 54.8958 47.8312C54.3135 48.3999 54 49.1805 54 49.9945C54 50.8086 54.3247 51.578 54.8958 52.1578L61.7035 58.815V58.8262Z" fill="#ABFF8D"/>
</svg>
