<svg width="128" height="128" viewBox="0 0 128 128" fill="none" xmlns="http://www.w3.org/2000/svg">
<rect width="128" height="128" rx="32" fill="#1D1F22"/>
<g clip-path="url(#clip0_128_112)">
<path d="M82.2 73.1601C81.09 73.1601 80.07 72.4101 79.78 71.2801C79.44 69.9401 80.24 68.5801 81.58 68.2401C89.48 66.2101 95 59.0801 95 50.9001C95 41.0301 86.97 33.0001 77.1 33.0001C68.93 33.0001 61.8 38.5201 59.76 46.4201C59.42 47.7601 58.05 48.5601 56.72 48.2201C55.38 47.8801 54.58 46.5101 54.92 45.1801C57.52 35.0601 66.64 28.0001 77.1 28.0001C89.73 28.0001 100 38.2701 100 50.9001C100 61.3601 92.94 70.4801 82.82 73.0801C82.61 73.1301 82.4 73.1601 82.2 73.1601ZM29.5 53.4001C28.12 53.4001 27 52.2801 27 50.9001C27 42.0201 34.22 34.8001 43.1 34.8001H43.86L41.33 32.2701C40.35 31.2901 40.35 29.7101 41.33 28.7301C42.31 27.7501 43.89 27.7501 44.87 28.7301L51.67 35.5301C51.91 35.7701 52.09 36.0501 52.21 36.3401C52.33 36.6201 52.39 36.9301 52.4 37.2501C52.4 37.2501 52.4 37.3101 52.4 37.3401C52.4 37.6601 52.33 37.9701 52.21 38.2501C52.09 38.5501 51.91 38.8301 51.66 39.0701L44.86 45.8701C43.88 46.8501 42.3 46.8501 41.32 45.8701C40.34 44.8901 40.34 43.3101 41.32 42.3301L43.85 39.8001H43.09C36.97 39.8001 31.99 44.7801 31.99 50.9001C31.99 52.2801 30.87 53.4001 29.49 53.4001H29.5Z" fill="#ABFF8D"/>
<path d="M49.9 60.6201C59.54 60.6201 67.38 68.4601 67.38 78.1001C67.38 87.7401 59.54 95.5801 49.9 95.5801C40.26 95.5801 32.42 87.7401 32.42 78.1001C32.42 68.4601 40.26 60.6201 49.9 60.6201ZM49.9 55.6201C37.48 55.6201 27.42 65.6801 27.42 78.1001C27.42 90.5201 37.49 100.58 49.9 100.58C62.31 100.58 72.38 90.5101 72.38 78.1001C72.38 65.6901 62.31 55.6201 49.9 55.6201Z" fill="#B0A4FF"/>
<path d="M97.5 75.1802C96.12 75.1802 95 76.3002 95 77.6802C95 83.8002 90.02 88.7802 83.9 88.7802H83.14L85.67 86.2502C86.65 85.2702 86.65 83.6902 85.67 82.7102C85.18 82.2202 84.54 81.9802 83.9 81.9802C83.26 81.9802 82.62 82.2202 82.13 82.7102L75.33 89.5102C75.23 89.6602 75.14 89.8102 75.08 89.9802C74.96 90.2702 74.9 90.5802 74.89 90.9002V90.9202V90.9402V90.9602C74.89 91.2902 74.96 91.6102 75.08 91.8902C75.15 92.0502 75.23 92.2102 75.33 92.3502L82.13 99.1502C82.62 99.6402 83.26 99.8802 83.9 99.8802C84.54 99.8802 85.18 99.6402 85.67 99.1502C86.65 98.1702 86.65 96.5902 85.67 95.6102L83.14 93.0802H83.9C92.78 93.0802 100 86.5602 100 77.6802C100 76.3002 98.88 75.1802 97.5 75.1802Z" fill="white"/>
</g>
<defs>
<clipPath id="clip0_128_112">
<rect width="73" height="72.58" fill="white" transform="translate(27 28)"/>
</clipPath>
</defs>
</svg>
