<svg width="16" height="16" viewBox="0 0 16 16" fill="none" xmlns="http://www.w3.org/2000/svg">
<path d="M8 0C3.592 0 0 3.592 0 8C0 12.408 3.592 16 8 16C12.408 16 16 12.408 16 8C16 3.592 12.408 0 8 0ZM10.232 8.424L7.408 11.248C7.288 11.368 7.136 11.424 6.984 11.424C6.832 11.424 6.68 11.368 6.56 11.248C6.328 11.016 6.328 10.632 6.56 10.4L8.96 8L6.56 5.6C6.328 5.368 6.328 4.984 6.56 4.752C6.792 4.52 7.176 4.52 7.408 4.752L10.232 7.576C10.472 7.808 10.472 8.192 10.232 8.424Z" fill="white"/>
</svg>
